<svg width="414" height="242" viewBox="0 0 414 242" fill="none" xmlns="http://www.w3.org/2000/svg">
<g clip-path="url(#clip0)">
<path d="M194.358 188H96.0625V162.645H163.605V127.915H101.389V102.56H163.605V67.9006H96.3466V42.5455H194.358V188Z" fill="#FFFFF2"/>
<path d="M202.98 188H224.926V132.957H254.756C255.253 132.957 255.679 132.957 256.176 132.957L285.722 188H310.722L278.477 129.122C296.304 122.517 305.182 107.673 305.182 88.142C305.182 61.3665 288.562 42.5455 254.827 42.5455H202.98V188ZM224.926 114.065V61.3665H252.483C274.145 61.3665 283.094 71.6648 283.094 88.142C283.094 104.548 274.145 114.065 252.767 114.065H224.926Z" fill="#FFFFF2"/>
</g>
<defs>
<clipPath id="clip0">
<rect width="525" height="242" fill="white"/>
</clipPath>
</defs>
</svg>
